<?xml version="1.0" encoding="utf-8"?>
<!-- Generator: Adobe Illustrator 16.0.0, SVG Export Plug-In . SVG Version: 6.00 Build 0)  -->
<!DOCTYPE svg PUBLIC "-//W3C//DTD SVG 1.1//EN" "http://www.w3.org/Graphics/SVG/1.1/DTD/svg11.dtd">
<svg version="1.1" id="Layer_0" xmlns="http://www.w3.org/2000/svg" xmlns:xlink="http://www.w3.org/1999/xlink" x="0px" y="0px"
	 width="742px" height="742px" viewBox="0 0 742 742" enable-background="new 0 0 742 742" xml:space="preserve">
<g id="Layer_1">
	<circle fill="#3FFFCB" cx="369.91" cy="41.218" r="5"/>
	<circle fill="#3FFFCB" cx="515.531" cy="122.075" r="5"/>
	<circle fill="#3FFFCB" cx="648.982" cy="210.491" r="5"/>
	<circle fill="#3FFFCB" cx="649.905" cy="369.37" r="5"/>
	<circle fill="#3FFFCB" cx="647.42" cy="528.759" r="5"/>
	<circle fill="#3FFFCB" cx="516.274" cy="615.57" r="5"/>
	<circle fill="#3FFFCB" cx="368.653" cy="690.346" r="5"/>
	<circle fill="#3FFFCB" cx="87.657" cy="528.816" r="5"/>
	<circle fill="#3FFFCB" cx="84.427" cy="369.365" r="5"/>
	<circle fill="#3FFFCB" cx="85.872" cy="205.472" r="5"/>
	<circle fill="#3FFFCB" cx="230.564" cy="121.782" r="5"/>
	<circle fill="#FF0000" cx="328.93" cy="132.047" r="5"/>
	<circle fill="#FF0000" cx="599.743" cy="382.725" r="5"/>
	<circle fill="#FF0000" cx="290.694" cy="549.285" r="5"/>
	<circle fill="#0000FF" cx="395.963" cy="142.314" r="5"/>
	<circle fill="#0000FF" cx="194.948" cy="254.294" r="5"/>
	<circle fill="#0000FF" cx="188.825" cy="450.501" r="5"/>
	<circle fill="#0000FF" cx="485.565" cy="401.421" r="5"/>
	<circle fill="#0000FF" cx="505.26" cy="274.826" r="5"/>
	<circle fill="#0000FF" cx="318.658" cy="478.972" r="5"/>
	<circle fill="#0000FF" cx="505.26" cy="528.754" r="5"/>
	<circle fill="#0000FF" cx="375.171" cy="594.5" r="5"/>
	<circle fill="#FF0000" cx="256.499" cy="386.105" r="5"/>
	<circle fill="#0000FF" cx="309.718" cy="223.286" r="5"/>
	<circle fill="#FF0000" cx="450.365" cy="331.071" r="5"/>
</g>
<g id="Layer_2">
	<circle fill="none" cx="368" cy="368" r="250"/>
</g>
</svg>
